HIERARCHY
ROOT hip
{
  OFFSET 0 0 0
  CHANNELS 6 Xposition Yposition Zposition Zrotation Yrotation Xrotation
  JOINT abdomen
  {
    OFFSET 0 20.6881 -0.73152
    CHANNELS 3 Zrotation Xrotation Yrotation
    JOINT chest
    {
      OFFSET 0 11.7043 -0.48768
      CHANNELS 3 Zrotation Xrotation Yrotation
      JOINT neck
      {
        OFFSET 0 22.1894 -2.19456
        CHANNELS 3 Zrotation Xrotation Yrotation
        JOINT head
        {
          OFFSET -0.24384 7.07133 1.2192
          CHANNELS 3 Zrotation Xrotation Yrotation
          JOINT leftEye
          {
            OFFSET 4.14528 8.04674 8.04672
            CHANNELS 3 Zrotation Xrotation Yrotation
            End Site
            {
              OFFSET 1 0 0
            }
          }
          JOINT rightEye
          {
            OFFSET -3.6576 8.04674 8.04672
            CHANNELS 3 Zrotation Xrotation Yrotation
            End Site
            {
              OFFSET 1 0 0
            }
          }
        }
      }
      JOINT rCollar
      {
        OFFSET -2.68224 19.2634 -4.8768
        CHANNELS 3 Zrotation Xrotation Yrotation
        JOINT rShldr
        {
          OFFSET -8.77824 -1.95073 1.46304
          CHANNELS 3 Zrotation Xrotation Yrotation
          JOINT rForeArm
          {
            OFFSET -28.1742 -1.7115 0.48768
            CHANNELS 3 Zrotation Xrotation Yrotation
            JOINT rHand
            {
              OFFSET -22.5879 0.773209 7.07136
              CHANNELS 3 Zrotation Xrotation Yrotation
              JOINT rThumb1
              {
                OFFSET -1.2192 -0.487915 3.41376
                CHANNELS 3 Zrotation Xrotation Yrotation
                JOINT rThumb2
                {
                  OFFSET -3.37035 -0.52449 3.41376
                  CHANNELS 3 Zrotation Xrotation Yrotation
                  End Site
                  {
                    OFFSET -1.78271 -1.18214 1.43049
                  }
                }
              }
              JOINT rIndex1
              {
                OFFSET -7.75947 0.938293 5.60832
                CHANNELS 3 Zrotation Xrotation Yrotation
                JOINT rIndex2
                {
                  OFFSET -2.54057 -0.884171 1.56538
                  CHANNELS 3 Zrotation Xrotation Yrotation
                  End Site
                  {
                    OFFSET -1.62519 -0.234802 1.16502
                  }
                }
              }
              JOINT rMid1
              {
                OFFSET -8.24714 1.18213 3.41376
                CHANNELS 3 Zrotation Xrotation Yrotation
                JOINT rMid2
                {
                  OFFSET -3.10165 -0.590103 1.0647
                  CHANNELS 3 Zrotation Xrotation Yrotation
                  End Site
                  {
                    OFFSET -2.48547 -0.328903 0.83742
                  }
                }
              }
              JOINT rRing1
              {
                OFFSET -8.82822 0.546677 1.51678
                CHANNELS 3 Zrotation Xrotation Yrotation
                JOINT rRing2
                {
                  OFFSET -2.60934 -0.819778 -0.0198488
                  CHANNELS 3 Zrotation Xrotation Yrotation
                  End Site
                  {
                    OFFSET -2.33842 -0.294052 0.168128
                  }
                }
              }
              JOINT rPinky1
              {
                OFFSET -8.27202 -0.0477905 -0.4584
                CHANNELS 3 Zrotation Xrotation Yrotation
                JOINT rPinky2
                {
                  OFFSET -1.82734 -0.647385 -0.700984
                  CHANNELS 3 Zrotation Xrotation Yrotation
                  End Site
                  {
                    OFFSET -1.69225 -0.51767 -0.607171
                  }
                }
              }
            }
          }
        }
      }
      JOINT lCollar
      {
        OFFSET 2.68224 19.2634 -4.8768
        CHANNELS 3 Zrotation Xrotation Yrotation
        JOINT lShldr
        {
          OFFSET 8.77824 -1.95073 1.46304
          CHANNELS 3 Zrotation Xrotation Yrotation
          JOINT lForeArm
          {
            OFFSET 28.1742 -1.7115 0.48768
            CHANNELS 3 Zrotation Xrotation Yrotation
            JOINT lHand
            {
              OFFSET 22.5879 0.773209 7.07136
              CHANNELS 3 Zrotation Xrotation Yrotation
              JOINT lThumb1
              {
                OFFSET 1.2192 -0.487915 3.41376
                CHANNELS 3 Zrotation Xrotation Yrotation
                JOINT lThumb2
                {
                  OFFSET 3.37035 -0.52449 3.41376
                  CHANNELS 3 Zrotation Xrotation Yrotation
                  End Site
                  {
                    OFFSET 1.78271 -1.18214 1.43049
                  }
                }
              }
              JOINT lIndex1
              {
                OFFSET 7.75947 0.938293 5.60832
                CHANNELS 3 Zrotation Xrotation Yrotation
                JOINT lIndex2
                {
                  OFFSET 2.54057 -0.884171 1.56538
                  CHANNELS 3 Zrotation Xrotation Yrotation
                  End Site
                  {
                    OFFSET 1.62519 -0.234802 1.16502
                  }
                }
              }
              JOINT lMid1
              {
                OFFSET 8.24714 1.18213 3.41376
                CHANNELS 3 Zrotation Xrotation Yrotation
                JOINT lMid2
                {
                  OFFSET 3.10165 -0.590103 1.0647
                  CHANNELS 3 Zrotation Xrotation Yrotation
                  End Site
                  {
                    OFFSET 2.48547 -0.328903 0.83742
                  }
                }
              }
              JOINT lRing1
              {
                OFFSET 8.82822 0.546677 1.51678
                CHANNELS 3 Zrotation Xrotation Yrotation
                JOINT lRing2
                {
                  OFFSET 2.60934 -0.819778 -0.0198488
                  CHANNELS 3 Zrotation Xrotation Yrotation
                  End Site
                  {
                    OFFSET 2.33842 -0.294052 0.168128
                  }
                }
              }
              JOINT lPinky1
              {
                OFFSET 8.27202 -0.0477905 -0.4584
                CHANNELS 3 Zrotation Xrotation Yrotation
                JOINT lPinky2
                {
                  OFFSET 1.82734 -0.647385 -0.700984
                  CHANNELS 3 Zrotation Xrotation Yrotation
                  End Site
                  {
                    OFFSET 1.69225 -0.51767 -0.607171
                  }
                }
              }
            }
          }
        }
      }
    }
  }
  JOINT rButtock
  {
    OFFSET -8.77824 4.35084 1.2192
    CHANNELS 3 Zrotation Xrotation Yrotation
    JOINT rThigh
    {
      OFFSET 0 -1.70687 -2.19456
      CHANNELS 3 Zrotation Xrotation Yrotation
      JOINT rShin
      {
        OFFSET 0 -36.8199 0.73152
        CHANNELS 3 Zrotation Xrotation Yrotation
        JOINT rFoot
        {
          OFFSET 0.73152 -45.1104 -5.12064
          CHANNELS 3 Zrotation Xrotation Yrotation
          End Site
          {
            OFFSET -1.1221 -3.69964 12.103
          }
        }
      }
    }
  }
  JOINT lButtock
  {
    OFFSET 8.77824 4.35084 1.2192
    CHANNELS 3 Zrotation Xrotation Yrotation
    JOINT lThigh
    {
      OFFSET 0 -1.70687 -2.19456
      CHANNELS 3 Zrotation Xrotation Yrotation
      JOINT lShin
      {
        OFFSET 0 -36.8199 0.73152
        CHANNELS 3 Zrotation Xrotation Yrotation
        JOINT lFoot
        {
          OFFSET -0.73152 -45.1104 -5.12064
          CHANNELS 3 Zrotation Xrotation Yrotation
          End Site
          {
            OFFSET 1.1221 -3.69964 12.103
          }
        }
      }
    }
  }
}
MOTION
Frames:	4
Frame Time:	0.03333
0.007575999945402145 47.40079879760742 0.004000000189989805 -19.512099623680115 -30.398099720478058 16.307600140571594 12.888299971818924 7.2353097796440125 4.831089936196804 2.368319984525442 -7.130609750747681 1.4833400398492813 0.16043300041928887 12.55240023136139 7.754940167069435 4.276240132749081 -21.552599519491196 16.073099970817566 0.0 0.0 0.0 0.0 0.0 0.0 -7.194245199571014e-13 0.0 0.0 106.13900184631348 45.75859844684601 -53.7116003036499 -27.033300697803497 -43.925700187683105 91.29680514335632 -4.528770111501217 -50.09190022945404 -9.673689901828766 -1.6962831139721857e-09 5.48936895938823e-09 1.3301360013429075e-09 -2.985531821764198e-09 9.497682640358107e-09 2.2509993868879974e-09 -1.6962431459432992e-09 5.48936895938823e-09 1.3301360013429075e-09 7.7309102565050125 5.474880114197731 0.41731400415301323 -1.6962831139721857e-09 5.48936895938823e-09 1.3301360013429075e-09 2.905540131032467 0.9651830233633518 0.102901995414868 -1.6962831139721857e-09 5.48936895938823e-09 1.3301360013429075e-09 10.27859978377819 0.7318009994924068 0.025912300043273717 -1.6962831139721857e-09 5.48936895938823e-09 1.3301360013429075e-09 2.221670038998127 -0.733487019315362 -0.2089200052432716 -7.194245199571014e-13 0.0 0.0 -45.069699883461 10.879900082945824 -38.37770104408264 12.453200072050095 -5.771620273590088 -22.49049961566925 2.643470037728548 41.103699803352356 -7.043189853429794 -4.17961665277744e-09 -3.325340003357269e-11 -2.660272002685815e-09 -7.285891889807772e-09 6.701839083689265e-10 -4.440607881406322e-09 -4.179656620806327e-09 -3.325340003357269e-11 -2.660272002685815e-09 -7.7309102565050125 5.474880114197731 -0.41731400415301323 -4.17961665277744e-09 -3.325340003357269e-11 -2.660272002685815e-09 -2.905540131032467 0.9651830233633518 -0.102901995414868 -4.179656620806327e-09 -3.325340003357269e-11 -2.660272002685815e-09 -10.27859978377819 0.7318009994924068 -0.025912300043273717 -4.17961665277744e-09 -3.325340003357269e-11 -2.660272002685815e-09 -2.221670038998127 -0.733487019315362 0.2089200052432716 0.0 0.0 0.0 -13.174800127744675 11.238899677991867 -1.19590999558568 0.11202100315131247 29.215800762176514 2.4615599401295185 -7.477110251784325 -18.020199984312057 -29.362099170684814 0.0 0.0 0.0 91.91629886627197 -49.16949927806854 80.45840084552765 12.151600420475006 85.02860069274902 -11.963100135326385 -0.33024099189788103 -5.878679975867271 -2.579960022121668
0.016718000173568726 47.3744010925293 0.01000000024214387 -19.56849977374077 -30.368901193141937 16.387999355793 12.956799566745758 7.155579775571823 4.752430133521557 2.3753099888563156 -7.125520259141922 1.4593000710010529 0.20558801013976336 12.508599758148193 7.732520252466202 4.219899997115135 -21.51309996843338 16.013899594545364 0.0 0.0 0.0 0.0 0.0 0.0 -6.794564910705958e-13 0.0 0.0 106.14099740982056 45.832799077034 -53.74779939651489 -27.046000957489014 -43.89109969139099 91.2283980846405 -4.538519941270351 -50.1285982131958 -9.686390161514282 -3.309792440120418e-09 6.612310698983492e-09 3.376499080331996e-10 -5.721183526929963e-09 1.1221743534406414e-08 4.604316927725449e-10 -3.309792440120418e-09 6.612310698983492e-09 3.376499080331996e-10 7.7309102565050125 5.474880114197731 0.41731400415301323 -3.309792440120418e-09 6.612310698983492e-09 3.376499080331996e-10 2.905540131032467 0.9651830233633518 0.102901995414868 -3.309792440120418e-09 6.612310698983492e-09 3.376499080331996e-10 10.27859978377819 0.7318009994924068 0.025912300043273717 -3.309792440120418e-09 6.612310698983492e-09 3.376499080331996e-10 2.221670038998127 -0.733487019315362 -0.2089200052432716 -6.794564910705958e-13 0.0 0.0 -45.139399766922 10.804700329899788 -38.331800401210785 12.415799349546432 -5.744519904255867 -22.417599856853485 2.632319927215576 41.03560119867325 -7.026220187544823 -5.007194658901426e-09 -7.599680884595728e-09 -5.126139512867667e-09 -8.79204709036685e-09 -1.206842625833815e-08 -8.66634763951879e-09 -5.007194658901426e-09 -7.599680884595728e-09 -5.126139512867667e-09 -7.7309102565050125 5.474880114197731 -0.41731400415301323 -5.007194658901426e-09 -7.599680884595728e-09 -5.126139512867667e-09 -2.905540131032467 0.9651830233633518 -0.102901995414868 -5.007194658901426e-09 -7.599680884595728e-09 -5.126139512867667e-09 -10.27859978377819 0.7318009994924068 -0.025912300043273717 -5.007194658901426e-09 -7.599680884595728e-09 -5.126139512867667e-09 -2.221670038998127 -0.733487019315362 0.2089200052432716 0.0 0.0 0.0 -13.14220055937767 11.235900297760963 -1.2108400091528893 0.11220899876207113 29.17120099067688 2.4624599888920784 -7.4696798622608185 -17.983200252056122 -29.397399723529816 0.0 0.0 0.0 92.08349704742432 -49.177401065826416 80.594801902771 12.309099733829498 85.0864988565445 -12.119100093841553 -0.3374160057865083 -5.889080241322517 -2.6143999211490154
0.029079999774694443 47.34749984741211 0.01899999985471368 -19.604399800300598 -30.362901091575623 16.450800597667694 12.995899468660355 7.090039998292923 4.716930091381073 2.3874999582767487 -7.1337901800870895 1.4480399899184704 0.21823500283062458 12.50929981470108 7.704619914293289 4.171739928424358 -21.547900289297104 15.951299518346786 0.0 0.0 0.0 0.0 0.0 0.0 -3.9968028886505635e-13 0.0 0.0 106.1549985408783 45.88090181350708 -53.77509891986847 -27.058998942375183 -43.85539948940277 91.1575984954834 -4.55729003995657 -50.198898911476135 -9.710839837789536 -1.2662670911822715e-09 1.4426859706873074e-09 -4.706635081674904e-10 -2.1589929843912614e-09 2.348201633139979e-09 -8.697043085703626e-10 -1.2662670911822715e-09 1.4426859706873074e-09 -4.706635081674904e-10 7.7309102565050125 5.474880114197731 0.41731400415301323 -1.2662670911822715e-09 1.4426859706873074e-09 -4.706635081674904e-10 2.905540131032467 0.9651830233633518 0.102901995414868 -1.2662670911822715e-09 1.4426859706873074e-09 -4.706635081674904e-10 10.27859978377819 0.7318009994924068 0.025912300043273717 -1.2662670911822715e-09 1.4426859706873074e-09 -4.706635081674904e-10 2.221670038998127 -0.733487019315362 -0.2089200052432716 -3.9968028886505635e-13 0.0 0.0 -45.203697681427 10.811999961733818 -38.2738995552063 12.401000261306763 -5.7339198142290115 -22.388799637556076 2.626739926636219 41.0013011097908 -7.017710208892822 -1.901918622593257e-09 1.6115109247039072e-10 -1.156195139628835e-09 -3.3133096266624307e-09 6.139089236967266e-10 -1.9235812942497432e-09 -1.901918622593257e-09 1.6115109247039072e-10 -1.156195139628835e-09 -7.7309102565050125 5.474880114197731 -0.41731400415301323 -1.9018786545643707e-09 1.6115109247039072e-10 -1.156195139628835e-09 -2.905540131032467 0.9651830233633518 -0.102901995414868 -1.901918622593257e-09 1.6115109247039072e-10 -1.156195139628835e-09 -10.27859978377819 0.7318009994924068 -0.025912300043273717 -1.9018786545643707e-09 1.6115109247039072e-10 -1.156195139628835e-09 -2.221670038998127 -0.733487019315362 0.2089200052432716 0.0 0.0 0.0 -13.14039945602417 11.183400079607964 -1.214340040460229 0.11280699516646564 29.197599291801453 2.465939987450838 -7.474039793014526 -17.955400496721268 -29.440500140190125 0.0 0.0 0.0 92.21259713172913 -49.14640009403229 80.72140216827393 12.459700405597687 85.14029860496521 -12.266099900007248 -0.350076996255666 -5.915760174393654 -2.666719928383827
0.04167899955064058 47.3224983215332 0.03399999951943755 -19.59620028734207 -30.388500094413757 16.475200653076172 13.00879955291748 7.038249894976616 4.699200019240379 2.4017500318586826 -7.143719717860222 1.442169975489378 0.2197859901934862 12.519199848175049 7.6781196892261505 4.133379980921745 -21.605499386787415 15.89539960026741 0.0 0.0 0.0 0.0 0.0 0.0 -7.993605777301127e-14 0.0 0.0 106.17499709129333 45.914998054504395 -53.794898986816406 -27.070199847221375 -43.82450044155121 91.09670162200928 -4.575229994952679 -50.26590049266815 -9.734179750084877 1.3019985090068076e-09 -4.292246558179613e-09 -1.0743406164692715e-09 2.297761980685209e-09 -7.438529792125337e-09 -1.8110313249053434e-09 1.3019985090068076e-09 -4.292246558179613e-09 -1.0743406164692715e-09 7.7309102565050125 5.474880114197731 0.41731400415301323 1.3019985090068076e-09 -4.292246558179613e-09 -1.0743406164692715e-09 2.905540131032467 0.9651830233633518 0.102901995414868 1.3019985090068076e-09 -4.292246558179613e-09 -1.0743406164692715e-09 10.27859978377819 0.7318009994924068 0.025912300043273717 1.3019985090068076e-09 -4.292246558179613e-09 -1.0743406164692715e-09 2.221670038998127 -0.733487019315362 -0.2089200052432716 -7.993605777301127e-14 0.0 0.0 -45.232102274894714 10.867899879813194 -38.22199881076813 12.390999644994736 -5.726799890398979 -22.369400560855865 2.6291200518608093 41.01599961519241 -7.0213499665260315 1.6597523355699195e-09 9.681855317467125e-09 3.560671757441014e-09 2.975819590744777e-09 1.6209753539442318e-08 6.087930159992538e-09 1.6597523355699195e-09 9.681855317467125e-09 3.560671757441014e-09 -7.7309102565050125 5.474880114197731 -0.41731400415301323 1.659792303598806e-09 9.681855317467125e-09 3.560671757441014e-09 -2.905540131032467 0.9651830233633518 -0.102901995414868 1.6597523355699195e-09 9.681855317467125e-09 3.560671757441014e-09 -10.27859978377819 0.7318009994924068 -0.025912300043273717 1.659792303598806e-09 9.681855317467125e-09 3.560671757441014e-09 -2.221670038998127 -0.733487019315362 0.2089200052432716 0.0 0.0 0.0 -13.165400326251984 11.125399991869926 -1.2082599755376577 0.11342899524606764 29.24349993467331 2.469750065356493 -7.483129799365997 -17.941300123929977 -29.478600919246674 0.0 0.0 0.0 92.29440450668335 -49.09690260887146 80.82519829273224 12.594300359487534 85.18780052661896 -12.396099865436554 -0.36420500837266445 -5.950720086693764 -2.723669931292534
